<svg xmlns="http://www.w3.org/2000/svg" xmlns:xlink="http://www.w3.org/1999/xlink" style="display:none">
  <!-- Instagram Icon -->
  <symbol id="instagram" viewBox="0 0 256 256">
    <path fill="#fff" d="M128 23.064c34.177 0 38.225.13 51.722.745 12.48.57 19.258 2.655 23.769 4.408 5.974 2.322 10.238 5.096 14.717 9.575 4.48 4.479 7.253 8.743 9.575 14.717 1.753 4.511 3.838 11.289 4.408 23.768.615 13.498.745 17.546.745 51.723 0 34.178-.13 38.226-.745 51.723-.57 12.48-2.655 19.257-4.408 23.768-2.322 5.974-5.096 10.239-9.575 14.718-4.479 4.479-8.743 7.253-14.717 9.574-4.511 1.753-11.289 3.839-23.769 4.408-13.495.616-17.543.746-51.722.746-34.18 0-38.228-.13-51.723-.746-12.48-.57-19.257-2.655-23.768-4.408-5.974-2.321-10.239-5.095-14.718-9.574-4.479-4.48-7.253-8.744-9.574-14.718-1.753-4.51-3.839-11.288-4.408-23.768-.616-13.497-.746-17.545-.746-51.723 0-34.177.13-38.225.746-51.722.57-12.48 2.655-19.258 4.408-23.769 2.321-5.974 5.095-10.238 9.574-14.717 4.48-4.48 8.744-7.253 14.718-9.575 4.51-1.753 11.289-3.838 23.768-4.408 13.497-.615 17.545-.745 51.723-.745M128 0C93.237 0 88.878.147 75.226.77c-13.625.622-22.93 2.786-31.071 5.95-8.418 3.271-15.556 7.648-22.672 14.764C14.367 28.6 9.991 35.738 6.72 44.155 3.555 52.297 1.392 61.602.77 75.226.147 88.878 0 93.237 0 128c0 34.763.147 39.122.77 52.774.622 13.625 2.785 22.93 5.95 31.071 3.27 8.417 7.647 15.556 14.763 22.672 7.116 7.116 14.254 11.492 22.672 14.763 8.142 3.165 17.446 5.328 31.07 5.95 13.653.623 18.012.77 52.775.77s39.122-.147 52.774-.77c13.624-.622 22.929-2.785 31.07-5.95 8.418-3.27 15.556-7.647 22.672-14.763 7.116-7.116 11.493-14.254 14.764-22.672 3.164-8.142 5.328-17.446 5.95-31.07.623-13.653.77-18.012.77-52.775s-.147-39.122-.77-52.774c-.622-13.624-2.786-22.929-5.95-31.07-3.271-8.418-7.648-15.556-14.764-22.672C227.4 14.368 220.262 9.99 211.845 6.72c-8.142-3.164-17.447-5.328-31.071-5.95C167.122.147 162.763 0 128 0Zm0 62.27C91.698 62.27 62.27 91.7 62.27 128c0 36.302 29.428 65.73 65.73 65.73 36.301 0 65.73-29.428 65.73-65.73 0-36.301-29.429-65.73-65.73-65.73Zm0 108.397c-23.564 0-42.667-19.103-42.667-42.667S104.436 85.333 128 85.333s42.667 19.103 42.667 42.667-19.103 42.667-42.667 42.667Zm83.686-110.994c0 8.484-6.876 15.36-15.36 15.36-8.483 0-15.36-6.876-15.36-15.36 0-8.483 6.877-15.36 15.36-15.36 8.484 0 15.36 6.877 15.36 15.36Z"/>
  </symbol>
  <!-- X (Twitter) Icon -->
  <symbol id="x" viewBox="0 0 1200 1227">
    <path fill="#fff" d="M714.163 519.284 1160.89 0h-105.86L667.137 450.887 357.328 0H0l468.492 681.821L0 1226.37h105.866l409.625-476.152 327.181 476.152H1200L714.137 519.284h.026ZM569.165 687.828l-47.468-67.894-377.686-540.24h162.604l304.797 435.991 47.468 67.894 396.2 566.721H892.476L569.165 687.854v-.026Z"/>
  </symbol>
  <!-- LinkedIn Icon -->
  <symbol id="linkedin" viewBox="0 0 256 256">
    <path d="M218.123 218.127h-37.931v-59.403c0-14.165-.253-32.4-19.728-32.4-19.756 0-22.779 15.434-22.779 31.369v60.43h-37.93V95.967h36.413v16.694h.51a39.907 39.907 0 0 1 35.928-19.733c38.445 0 45.533 25.288 45.533 58.186l-.016 67.013ZM56.955 79.27c-12.157.002-22.014-9.852-22.016-22.009-.002-12.157 9.851-22.014 22.008-22.016 12.157-.003 22.014 9.851 22.016 22.008A22.013 22.013 0 0 1 56.955 79.27m18.966 138.858H37.95V95.967h37.97v122.16ZM237.033.018H18.89C8.58-.098.125 8.161-.001 18.471v219.053c.122 10.315 8.576 18.582 18.89 18.474h218.144c10.336.128 18.823-8.139 18.966-18.474V18.454c-.147-10.33-8.635-18.588-18.966-18.453" fill="#0A66C2"/>
  </symbol>
  <!-- GitHub Icon -->
  <symbol id="github" viewBox="0 0 1024 1024">
    <path fill-rule="evenodd" clip-rule="evenodd" d="M8 0C3.58 0 0 3.58 0 8C0 11.54 2.29 14.53 5.47 15.59C5.87 15.66 6.02 15.42 6.02 15.21C6.02 15.02 6.01 14.39 6.01 13.72C4 14.09 3.48 13.23 3.32 12.78C3.23 12.55 2.84 11.84 2.5 11.65C2.22 11.5 1.82 11.13 2.49 11.12C3.12 11.11 3.57 11.7 3.72 11.94C4.44 13.15 5.59 12.81 6.05 12.6C6.12 12.08 6.33 11.73 6.56 11.53C4.78 11.33 2.92 10.64 2.92 7.58C2.92 6.71 3.23 5.99 3.74 5.43C3.66 5.23 3.38 4.41 3.82 3.31C3.82 3.31 4.49 3.1 6.02 4.13C6.66 3.95 7.34 3.86 8.02 3.86C8.7 3.86 9.38 3.95 10.02 4.13C11.55 3.09 12.22 3.31 12.22 3.31C12.66 4.41 12.38 5.23 12.3 5.43C12.81 5.99 13.12 6.7 13.12 7.58C13.12 10.65 11.25 11.33 9.47 11.53C9.76 11.78 10.01 12.26 10.01 13.01C10.01 14.08 10 14.94 10 15.21C10 15.42 10.15 15.67 10.55 15.59C13.71 14.53 16 11.53 16 8C16 3.58 12.42 0 8 0Z" transform="scale(64)" fill="#fff"/>
  </symbol>
  <!-- Verified Icon -->
  <symbol id="verified" viewBox="0 0 20 20">
    <path fill-rule="evenodd" d="M10 18a8 8 0 100-16 8 8 0 000 16zm3.707-8.707a1 1 0 00-1.414-1.414L9 11.172l-1.293-1.293a1 1 0 00-1.414 1.414l2 2a1 1 0 001.414 0l4-4z" clip-rule="evenodd" />
  </symbol>
  <!-- HTML5 Icon -->
  <symbol id="html5" viewBox="0 0 32 32">
    <path d="M6 28L4 3H28L26 28L16 31L6 28Z" fill="#E44D26"></path> <path d="M26 5H16V29.5L24 27L26 5Z" fill="#F16529"></path> <path d="M9.5 17.5L8.5 8H24L23.5 11H11.5L12 14.5H23L22 24L16 26L10 24L9.5 19H12.5L13 21.5L16 22.5L19 21.5L19.5 17.5H9.5Z" fill="white"></path>
  </symbol>
  <!-- CSS Icon -->
  <symbol id="css" viewBox="0 0 24 24">
    <path d="m3 2 1.578 17.834L12 22l7.468-2.165L21 2H3Zm13.3 14.722-4.293 1.204H12l-4.297-1.204-.297-3.167h2.108l.15 1.526 2.335.639 2.34-.64.245-3.05h-7.27l-.187-2.006h7.64l.174-2.006H6.924l-.176-2.006h10.506l-.954 10.71Z"/>
  </symbol>
  <!-- JavaScript Icon -->
  <symbol id="javascript" viewBox="0 0 32 32">
   <rect x="2" y="2" width="28" height="28" fill="#FFCA28"></rect> <path d="M19 25.2879L21.0615 23.9237C21.2231 24.4313 22.2462 25.6368 23.5385 25.6368C24.8308 25.6368 25.4308 24.931 25.4308 24.463C25.4308 23.1878 24.1112 22.7382 23.4774 22.5223C23.374 22.4871 23.289 22.4581 23.2308 22.4328C23.2009 22.4198 23.1558 22.4025 23.0979 22.3804C22.393 22.1111 19.7923 21.1175 19.7923 18.2373C19.7923 15.065 22.8538 14.7002 23.5462 14.7002C23.9991 14.7002 26.1769 14.7557 27.2615 16.7939L25.2615 18.1898C24.8231 17.3015 24.0946 17.0081 23.6462 17.0081C22.5385 17.0081 22.3077 17.8201 22.3077 18.1898C22.3077 19.227 23.5112 19.6919 24.5273 20.0844C24.7932 20.1871 25.0462 20.2848 25.2615 20.3866C26.3692 20.91 28 21.7666 28 24.463C28 25.8136 26.8672 28.0002 24.0154 28.0002C20.1846 28.0002 19.1692 25.7003 19 25.2879Z" fill="#3E3E3E"></path> <path d="M9 25.5587L11.1487 24.1953C11.317 24.7026 11.9713 25.638 12.9205 25.638C13.8698 25.638 14.3557 24.663 14.3557 24.1953V15.0002H16.9982V24.1953C17.041 25.4636 16.3376 28.0002 13.2332 28.0002C10.379 28.0002 9.19242 26.3039 9 25.5587Z" fill="#3E3E3E"></path>
  </symbol>
  <!-- React Icon -->
  <symbol id="react" viewBox="0 0 32 32">
    <circle cx="16" cy="16" r="2.5" fill="#61dafb"/>
    <g stroke="#61dafb" stroke-width="2" fill="none">
      <ellipse rx="10" ry="4.5" cx="16" cy="16" transform="rotate(60 16 16)"/>
      <ellipse rx="10" ry="4.5" cx="16" cy="16" transform="rotate(120 16 16)"/>
      <ellipse rx="10" ry="4.5" cx="16" cy="16"/>
    </g>
  </symbol>
  <!-- Tailwind CSS Icon -->
  <symbol id="tailwind" viewBox="0 0 32 32">
    <path d="M9,13.7q1.4-5.6,7-5.6c5.6,0,6.3,4.2,9.1,4.9q2.8.7,4.9-2.1-1.4,5.6-7,5.6c-5.6,0-6.3-4.2-9.1-4.9Q11.1,10.9,9,13.7ZM2,22.1q1.4-5.6,7-5.6c5.6,0,6.3,4.2,9.1,4.9q2.8.7,4.9-2.1-1.4,5.6-7,5.6c-5.6,0-6.3-4.2-9.1-4.9Q4.1,19.3,2,22.1Z" style="fill:#44a8b3"></path>
  </symbol>
  <!-- Node.js Icon -->
  <symbol id="nodejs" viewBox="0 0 40 40">
    <defs><linearGradient id="b" x1="271.97" x2="211.104" y1="217.606" y2="341.772" gradientUnits="userSpaceOnUse"><stop offset=".3" stop-color="#3e863d"/><stop offset=".5" stop-color="#55934f"/><stop offset=".8" stop-color="#5aad45"/></linearGradient><linearGradient id="d" x1="186.484" x2="297.349" y1="321.381" y2="239.465" gradientUnits="userSpaceOnUse"><stop offset=".57" stop-color="#3e863d"/><stop offset=".72" stop-color="#619857"/><stop offset="1" stop-color="#76ac64"/></linearGradient><linearGradient id="f" x1="197.051" x2="288.72" y1="279.652" y2="279.652" gradientUnits="userSpaceOnUse"><stop offset=".16" stop-color="#6bbf47"/><stop offset=".38" stop-color="#79b461"/><stop offset=".47" stop-color="#75ac64"/><stop offset=".7" stop-color="#659e5a"/>
    <stop offset=".9" stop-color="#3e863d"/></linearGradient><clipPath id="a"><path d="m239.03 226.605-42.13 24.317a5.085 5.085 0 0 0-2.546 4.406v48.668c0 1.817.968 3.496 2.546 4.406l42.133 24.336a5.1 5.1 0 0 0 5.09 0l42.126-24.336a5.096 5.096 0 0 0 2.54-4.406v-48.668c0-1.816-.97-3.496-2.55-4.406l-42.12-24.317a5.123 5.123 0 0 0-5.1 0"/></clipPath><clipPath id="c"><path d="M195.398 307.086c.403.523.907.976 1.5 1.316l36.14 20.875 6.02 3.46c.9.52 1.926.74 2.934.665.336-.027.672-.09 1-.183l44.434-81.36c-.34-.37-.738-.68-1.184-.94l-27.586-15.93-14.582-8.39a5.318 5.318 0 0 0-1.32-.53zm0 0"/></clipPath><clipPath id="e"><path d="M241.066 225.953a5.14 5.14 0 0 0-2.035.652l-42.01 24.247 45.3 82.51c.63-.09 1.25-.3 1.81-.624l42.13-24.336a5.105 5.105 0 0 0 2.46-3.476l-46.18-78.89a5.29 5.29 0 0 0-1.03-.102l-.42.02"/></clipPath></defs><g clip-path="url(#a)" transform="translate(-68.564 -79.701) scale(.35278)">
    <path fill="url(#b)" d="m331.363 246.793-118.715-58.19-60.87 124.174L270.49 370.97zm0 0"/></g><g clip-path="url(#c)" transform="translate(-68.564 -79.701) scale(.35278)"><path fill="url(#d)" d="m144.07 264.004 83.825 113.453 110.86-81.906-83.83-113.45zm0 0"/></g><g clip-path="url(#e)" transform="translate(-68.564 -79.701) scale(.35278)"><path fill="url(#f)" d="M197.02 225.934v107.43h91.683v-107.43zm0 0"/></g>
  </symbol>
  <!-- Express Icon -->
  <symbol id="express" viewBox="0 0 32 32">
    <path d="M24 18.588a1.529 1.529 0 0 1-1.895-.72l-3.45-4.771-.5-.667-4.003 5.444a1.466 1.466 0 0 1-1.802.708l5.158-6.92-4.798-6.251a1.595 1.595 0 0 1 1.9.666l3.576 4.83 3.596-4.81a1.435 1.435 0 0 1 1.788-.668L21.708 7.9l-2.522 3.283a.666.666 0 0 0 0 .994l4.804 6.412zM.002 11.576l.42-2.075c1.154-4.103 5.858-5.81 9.094-3.27 1.895 1.489 2.368 3.597 2.275 5.973H1.116C.943 16.447 4.005 19.009 7.92 17.7a4.078 4.078 0 0 0 2.582-2.876c.207-.666.548-.78 1.174-.588a5.417 5.417 0 0 1-2.589 3.957 6.272 6.272 0 0 1-7.306-.933 6.575 6.575 0 0 1-1.64-3.858c0-.235-.08-.455-.134-.666A88.33 88.33 0 0 1 0 11.577zm1.127-.286h9.654c-.06-3.076-2.001-5.258-4.59-5.278-2.882-.04-4.944 2.094-5.071 5.264z"></path>
  </symbol>
  <!-- Python Icon -->
  <symbol id="python" viewBox="0 0 32 32">
    <path fill-rule="evenodd" clip-rule="evenodd" d="M13.0164 2C10.8193 2 9.03825 3.72453 9.03825 5.85185V8.51852H15.9235V9.25926H5.97814C3.78107 9.25926 2 10.9838 2 13.1111L2 18.8889C2 21.0162 3.78107 22.7407 5.97814 22.7407H8.27322V19.4815C8.27322 17.3542 10.0543 15.6296 12.2514 15.6296H19.5956C21.4547 15.6296 22.9617 14.1704 22.9617 12.3704V5.85185C22.9617 3.72453 21.1807 2 18.9836 2H13.0164ZM12.0984 6.74074C12.8589 6.74074 13.4754 6.14378 13.4754 5.40741C13.4754 4.67103 12.8589 4.07407 12.0984 4.07407C11.3378 4.07407 10.7213 4.67103 10.7213 5.40741C10.7213 6.14378 11.3378 6.74074 12.0984 6.74074Z" fill="url(#paint0_linear_87_8204)"></path> <path fill-rule="evenodd" clip-rule="evenodd" d="M18.9834 30C21.1805 30 22.9616 28.2755 22.9616 26.1482V23.4815L16.0763 23.4815L16.0763 22.7408L26.0217 22.7408C28.2188 22.7408 29.9998 21.0162 29.9998 18.8889V13.1111C29.9998 10.9838 28.2188 9.25928 26.0217 9.25928L23.7266 9.25928V12.5185C23.7266 14.6459 21.9455 16.3704 19.7485 16.3704L12.4042 16.3704C10.5451 16.3704 9.03809 17.8296 9.03809 19.6296L9.03809 26.1482C9.03809 28.2755 10.8192 30 13.0162 30H18.9834ZM19.9015 25.2593C19.1409 25.2593 18.5244 25.8562 18.5244 26.5926C18.5244 27.329 19.1409 27.9259 19.9015 27.9259C20.662 27.9259 21.2785 27.329 21.2785 26.5926C21.2785 25.8562 20.662 25.2593 19.9015 25.2593Z" fill="url(#paint1_linear_87_8204)"></path> <defs> <linearGradient id="paint0_linear_87_8204" x1="12.4809" y1="2" x2="12.4809" y2="22.7407" gradientUnits="userSpaceOnUse"> <stop stop-color="#327EBD"></stop> <stop offset="1" stop-color="#1565A7"></stop> </linearGradient> <linearGradient id="paint1_linear_87_8204" x1="19.519" y1="9.25928" x2="19.519" y2="30" gradientUnits="userSpaceOnUse"> <stop stop-color="#FFDA4B"></stop> <stop offset="1" stop-color="#F9C600"></stop> </linearGradient> </defs>
  </symbol>
  <!-- PHP Icon -->
  <symbol id="php" viewBox="0 0 32 32">
    <circle cx="16" cy="16" r="14" fill="#8892BF"></circle> 
    <path d="M14.4392 10H16.1192L15.6444 12.5242H17.154C17.9819 12.5419 18.5986 12.7269 19.0045 13.0793C19.4184 13.4316 19.5402 14.1014 19.3698 15.0881L18.5541 19.4889H16.8497L17.6288 15.2863C17.7099 14.8457 17.6856 14.533 17.5558 14.348C17.426 14.163 17.146 14.0705 16.7158 14.0705L15.3644 14.0573L14.3661 19.4889H12.6861L14.4392 10Z" fill="white"></path>
    <path fill-rule="evenodd" clip-rule="evenodd" d="M6.74092 12.5243H10.0036C10.9612 12.533 11.6552 12.8327 12.0854 13.4229C12.5156 14.0132 12.6576 14.8193 12.5115 15.8414C12.4548 16.3085 12.3289 16.7665 12.1341 17.2159C11.9474 17.6652 11.6878 18.0704 11.355 18.4317C10.9491 18.8898 10.5149 19.1805 10.0523 19.304C9.58969 19.4274 9.11076 19.489 8.61575 19.489H7.15484L6.69222 22H5L6.74092 12.5243ZM7.43485 17.9956L8.16287 14.0441H8.40879C8.49815 14.0441 8.5914 14.0396 8.6888 14.0309C9.33817 14.0221 9.87774 14.0882 10.308 14.2291C10.7462 14.37 10.8923 14.9031 10.7462 15.8282C10.5678 16.9296 10.2186 17.5727 9.69926 17.7577C9.1799 17.934 8.53053 18.0176 7.75138 18.0088H7.58094C7.53224 18.0088 7.48355 18.0043 7.43485 17.9956Z" fill="white"></path>
    <path fill-rule="evenodd" clip-rule="evenodd" d="M24.4365 12.5243H21.1738L19.4329 22H21.1251L21.5878 19.489H23.0487C23.5437 19.489 24.0226 19.4274 24.4852 19.304C24.9479 19.1805 25.382 18.8898 25.7879 18.4317C26.1207 18.0704 26.3803 17.6652 26.567 17.2159C26.7618 16.7665 26.8877 16.3085 26.9444 15.8414C27.0905 14.8193 26.9486 14.0132 26.5183 13.4229C26.0881 12.8327 25.3942 12.533 24.4365 12.5243ZM22.5958 14.0441L21.8678 17.9956C21.9165 18.0043 21.9652 18.0088 22.0139 18.0088H22.1843C22.9635 18.0176 23.6128 17.934 24.1322 17.7577C24.6515 17.5727 25.0007 16.9296 25.1792 15.8282C25.3253 14.9031 25.1792 14.37 24.7409 14.2291C24.3107 14.0882 23.7711 14.0221 23.1217 14.0309C23.0243 14.0396 22.9311 14.0441 22.8417 14.0441H22.5958Z" fill="white"></path>
  </symbol>
  <!-- GCP Icon -->
  <symbol id="gcp" viewBox="0 0 50 50">   
    <path fill="#CFD8DC" d="M30,13H18l-7,11l7,11h12l7-11L30,13z M24,29c-2.8,0-5-2.2-5-5s2.2-5,5-5s5,2.2,5,5S26.8,29,24,29z"></path><path fill="#2196F3" d="M34.8,7.2C34.3,6.5,33.5,6,32.6,6H15.4c-0.9,0-1.7,0.5-2.2,1.2l-5.8,9.5L12,24l6.3-10h20.6L34.8,7.2z M16,11c-0.6,0-1-0.4-1-1s0.4-1,1-1c0.6,0,1,0.4,1,1S16.6,11,16,11z M32,11c-0.6,0-1-0.4-1-1s0.4-1,1-1c0.6,0,1,0.4,1,1S32.6,11,32,11z"></path><path fill="#FFC107" d="M18.3,34L7.4,16.8l-3.6,5.9c-0.5,0.8-0.5,1.9,0,2.7l9.4,15.4c0.5,0.8,1.3,1.2,2.2,1.2h9.1l5.1-8H18.3z M8,25c-0.6,0-1-0.4-1-1s0.4-1,1-1c0.6,0,1,0.4,1,1S8.6,25,8,25z M16,39c-0.6,0-1-0.4-1-1s0.4-1,1-1c0.6,0,1,0.4,1,1S16.6,39,16,39z"></path><path fill="#1976D2" d="M7.4 16.8L12 24 14.4 20.3 8.5 15z"></path><path fill="#F9A825" d="M24.6 42L29.7 34 24.9 34 22.6 42z"></path><path fill="#DD2C00" d="M44.2,22.7L38.9,14h-9.2L36,24L24.6,42h8c0.9,0,1.7-0.5,2.2-1.2l9.5-15.4C44.8,24.5,44.8,23.5,44.2,22.7z M32,39c-0.6,0-1-0.4-1-1s0.4-1,1-1c0.6,0,1,0.4,1,1S32.6,39,32,39z M40,25c-0.6,0-1-0.4-1-1s0.4-1,1-1c0.6,0,1,0.4,1,1S40.6,25,40,25z"></path><path fill="#BF360C" d="M38.9 14L29.7 14 32.2 17.9 40.1 16z"></path>
  </symbol>
  <!-- Power BI Icon -->
  <symbol id="powerbi" viewBox="0 0 50 50">
    <path fill="#ffc107" d="M40,41H8c-2.206,0-4-1.794-4-4V11c0-2.206,1.794-4,4-4h32c2.206,0,4,1.794,4,4v26	C44,39.206,42.206,41,40,41z"></path><path fill="#212121" d="M34,12.98H14.02c-2.2,0-4,1.79-4,4V30c0,1.86,1.27,3.42,2.98,3.86v-2.14	c-0.59-0.35-0.98-0.99-0.98-1.72V16.98c0-1.1,0.9-2,2-2H34c1.1,0,2,0.9,2,2V30c0,0.74-0.4,1.38-1,1.73v2.14c1.73-0.44,3-2.01,3-3.87	V16.98C38,14.77,36.21,12.98,34,12.98z"></path><path fill="#212121" d="M16.5,28L16.5,28c0.828,0,1.5,0.672,1.5,1.5v5c0,0.828-0.672,1.5-1.5,1.5l0,0	c-0.828,0-1.5-0.672-1.5-1.5v-5C15,28.672,15.672,28,16.5,28z"></path><path fill="#212121" d="M21.5,22L21.5,22c0.828,0,1.5,0.672,1.5,1.5v11c0,0.828-0.672,1.5-1.5,1.5l0,0	c-0.828,0-1.5-0.672-1.5-1.5v-11C20,22.672,20.672,22,21.5,22z"></path><path fill="#212121" d="M26.5,25L26.5,25c0.828,0,1.5,0.672,1.5,1.5v8c0,0.828-0.672,1.5-1.5,1.5l0,0	c-0.828,0-1.5-0.672-1.5-1.5v-8C25,25.672,25.672,25,26.5,25z"></path><path fill="#212121" d="M31.5,18L31.5,18c0.828,0,1.5,0.672,1.5,1.5v15c0,0.828-0.672,1.5-1.5,1.5l0,0	c-0.828,0-1.5-0.672-1.5-1.5v-15C30,18.672,30.672,18,31.5,18z"></path>
  </symbol>
  <!-- Looker Studio Icon -->
  <symbol id="lookerstudio" viewBox="0 0 32 32">
    <path fill="#D2E3FC" d="M7.4,1.5c-1.2,0-2.1,0.9-2.1,2.1c0,0.4,0.1,0.8,0.4,1.2l0.9-0.9c0-0.1,0-0.2,0-0.3c0-0.5,0.4-0.9,0.9-0.9 s0.9,0.4,0.9,0.9c0,0.5-0.4,0.9-0.9,0.9c-0.1,0-0.2,0-0.3,0L6.3,5.3c1,0.6,2.3,0.4,2.9-0.6c0.6-1,0.4-2.3-0.6-2.9 C8.3,1.6,7.9,1.5,7.4,1.5z"></path> <path fill="#5E97F6" d="M6.6,7.6c0-0.7-0.2-1.4-0.6-2L4.8,6.8C4.9,7.1,5,7.3,5,7.6c0,0.5-0.2,0.9-0.5,1.2l0.6,1.6 C6.1,9.8,6.6,8.7,6.6,7.6z"></path> <path fill="#5E97F6" d="M3.4,9.3L3.4,9.3c-0.9,0-1.7-0.7-1.7-1.6c0-0.9,0.7-1.7,1.6-1.7c0.3,0,0.7,0.1,1,0.3l1.2-1.1 C4.8,4.6,4.1,4.3,3.3,4.3C1.5,4.3,0,5.8,0,7.6c0,1.8,1.4,3.3,3.3,3.3c0.2,0,0.5,0,0.7-0.1L3.4,9.3z"></path> <path fill="#4285F4" d="M7.5,10.6c-0.7,0-1.4,0.1-2.1,0.3l0.9,2.2C6.7,13.1,7.1,13,7.5,13c2.8,0,5,2.3,5,5c0,2.8-2.3,5-5,5 c-2.8,0-5-2.3-5-5c0-1.9,1-3.6,2.7-4.4l-0.9-2.2c-3.7,1.8-5.2,6.3-3.4,9.9c1.8,3.7,6.3,5.2,9.9,3.4c3.7-1.8,5.2-6.3,3.4-9.9 C12.9,12.3,10.3,10.6,7.5,10.6z"></path>
  </symbol>
  <!-- GA4 Icon -->
  <symbol id="ga4" viewBox="0 0 32 32">
    <path d="M256.003159,247.933017 C256.055907,258.030289 251.77298,267.664804 244.241349,274.390297 C236.709718,281.11579 226.653817,284.285366 216.626905,283.094249 C198.58347,280.424364 185.360959,264.722632 185.800619,246.488035 L185.800619,36.8452103 C185.364944,18.5907614 198.619678,2.88144681 216.687112,0.238996295 C226.704325,-0.933476157 236.743571,2.24455542 244.261279,8.9678962 C251.778988,15.691237 256.053811,25.3147619 256.003159,35.4002282 L256.003159,247.933017 Z" fill="#F9AB00"> </path> <path d="M35.1010243,213.193238 C54.4867848,213.193238 70.2020487,228.908502 70.2020487,248.294263 C70.2020487,267.680023 54.4867848,283.395287 35.1010243,283.395287 C15.7152639,283.395287 0,267.680023 0,248.294263 C0,228.908502 15.7152639,213.193238 35.1010243,213.193238 Z M127.459466,106.806429 C107.981896,107.874068 92.8698765,124.212107 93.3217628,143.713681 L93.3217628,237.998765 C93.3217628,263.58699 104.580582,279.120548 121.077461,282.431965 C131.434034,284.530959 142.185473,281.860819 150.356699,275.160414 C158.527925,268.460009 163.252393,258.439904 163.222912,247.872809 L163.222912,142.088076 C163.240039,132.641687 159.462041,123.584285 152.737293,116.950107 C146.012546,110.315928 136.904752,106.661084 127.459466,106.806429 L127.459466,106.806429 Z" fill="#E37400"> </path>
  </symbol>
</svg>